# xmcd
#
# Track frame offsets: 
#        150
#        14375
#        30520
#        45112
#        63572
#        78440
#        94572
#        116117
#        135225
#        144857
#        170865
#
# Disc length: 2372 seconds
#
# Revision: 1
# Processed by: cddbd v1.5.2PL0 Copyright (c) Steve Scherf et al.
# Submitted via: ExactAudioCopyFreeDBPlugin 1.0
#
DISCID=8309420b
DTITLE=Amund Maarud - Commotion
DYEAR=2004
DGENRE=Blues
TTITLE0=Victoria's Secret
TTITLE1=She's A Burglar
TTITLE2=Late Night Toy
TTITLE3=Regular Joe
TTITLE4=Viper In Your Bed
TTITLE5=I Told You
TTITLE6=I Always Want (What I Can't Have)
TTITLE7=Natural Born Man
TTITLE8=Commotion
TTITLE9=Crying
TTITLE10=On The Farm
EXTD=YEAR: 2004
EXTT0=
EXTT1=
EXTT2=
EXTT3=
EXTT4=
EXTT5=
EXTT6=
EXTT7=
EXTT8=
EXTT9=
EXTT10=
PLAYORDER=
